<svg id="Group_9" data-name="Group 9" xmlns="http://www.w3.org/2000/svg" width="22.094" height="21.554" viewBox="0 0 22.094 21.554">
  <path id="Path_26" data-name="Path 26" d="M-400.387,55.867a11,11,0,0,0-4.02-4.02,10.806,10.806,0,0,0-5.545-1.482,10.807,10.807,0,0,0-5.545,1.482,11,11,0,0,0-4.02,4.02A10.806,10.806,0,0,0-421,61.412a10.736,10.736,0,0,0,2.107,6.494,10.82,10.82,0,0,0,5.444,3.992.644.644,0,0,0,.575-.1.563.563,0,0,0,.187-.431q0-.043-.007-.777t-.007-1.28l-.331.057a4.221,4.221,0,0,1-.8.05,6.083,6.083,0,0,1-1-.1,2.234,2.234,0,0,1-.964-.431,1.825,1.825,0,0,1-.633-.884l-.144-.331a3.594,3.594,0,0,0-.453-.733,1.736,1.736,0,0,0-.626-.547l-.1-.072a1.056,1.056,0,0,1-.187-.173.791.791,0,0,1-.129-.2q-.043-.1.072-.166a.933.933,0,0,1,.417-.064l.288.043a2.1,2.1,0,0,1,.712.345,2.322,2.322,0,0,1,.7.748,2.536,2.536,0,0,0,.8.9,1.694,1.694,0,0,0,.942.309,4.092,4.092,0,0,0,.82-.072,2.862,2.862,0,0,0,.647-.216,2.331,2.331,0,0,1,.7-1.482,9.849,9.849,0,0,1-1.474-.259,5.87,5.87,0,0,1-1.352-.561,3.872,3.872,0,0,1-1.158-.964,4.631,4.631,0,0,1-.755-1.51A7.182,7.182,0,0,1-417,60.836a4.2,4.2,0,0,1,1.136-2.963,3.867,3.867,0,0,1,.1-2.934,2.016,2.016,0,0,1,1.237.194,8.648,8.648,0,0,1,1.2.554q.381.23.611.388a10.214,10.214,0,0,1,2.762-.374,10.216,10.216,0,0,1,2.762.374l.547-.345a7.742,7.742,0,0,1,1.323-.633,1.885,1.885,0,0,1,1.166-.158,3.829,3.829,0,0,1,.115,2.934,4.2,4.2,0,0,1,1.137,2.963A7.263,7.263,0,0,1-403.2,63a4.451,4.451,0,0,1-.762,1.51,4.021,4.021,0,0,1-1.165.957,5.882,5.882,0,0,1-1.352.561,9.839,9.839,0,0,1-1.474.259,2.562,2.562,0,0,1,.748,2.042v3.035a.573.573,0,0,0,.18.431.625.625,0,0,0,.568.1,10.818,10.818,0,0,0,5.445-3.992,10.739,10.739,0,0,0,2.107-6.494A10.815,10.815,0,0,0-400.387,55.867Z" transform="translate(421 -50.365)" fill="#3bc9db"/>
</svg>
