<svg xmlns="http://www.w3.org/2000/svg" width="20.678" height="20.65" viewBox="0 0 20.678 20.65">
  <path id="Path_31" data-name="Path 31" d="M36.79,7.606h-15.2a2.454,2.454,0,0,0-2.738,2.765V25.546a2.425,2.425,0,0,0,2.655,2.71H36.79a2.461,2.461,0,0,0,2.738-2.738v-15.2A2.453,2.453,0,0,0,36.79,7.606ZM35.12,9.942c2.044,0,2.044,0,2.044,2.053,0,2.008,0,2.008-2.008,2.008-2.035,0-2.035,0-2.035-2.035S33.122,9.942,35.12,9.942ZM29.2,13.93a4,4,0,1,1-4.024,3.951A4.083,4.083,0,0,1,29.2,13.93Zm7.966,10.749c-.018.958-.265,1.232-1.223,1.232H22.427c-.94,0-1.214-.274-1.214-1.232,0-2.491.009-5.019-.037-7.537,0-.7.2-.867.858-.84.949.064.967.036.858.949A6.33,6.33,0,1,0,35.4,16.759c-.073-.365.018-.42.338-.42,1.424-.109,1.424-.137,1.424,1.332Z" transform="translate(-18.85 -7.606)" fill="#3bc9db" fill-rule="evenodd"/>
</svg>
