<svg id="Group_180" data-name="Group 180" xmlns="http://www.w3.org/2000/svg" width="19.136" height="19.136" viewBox="0 0 19.136 19.136">
  <path id="Path_331" data-name="Path 331" d="M95.983,80.21a2.007,2.007,0,0,1-2.126,2.127,2.045,2.045,0,0,1-2.127-2.02,2.156,2.156,0,0,1,2.127-2.232A2.067,2.067,0,0,1,95.983,80.21Z" transform="translate(-91.73 -78.084)" fill="#3bc9db"/>
  <rect id="Rectangle_53" data-name="Rectangle 53" width="4.252" height="13.82" transform="translate(0 5.315)" fill="#3bc9db"/>
  <path id="Path_332" data-name="Path 332" d="M111.113,87.952a4.656,4.656,0,0,0-4.04,2.126h-.106l-.212-1.807h-3.827c0,1.17.106,2.552.106,4.146v9.143h4.252V94.012a3.274,3.274,0,0,1,.106-1.063,2.286,2.286,0,0,1,2.02-1.7c1.488,0,2.126,1.276,2.126,2.976v7.335h4.253V93.692C115.79,89.759,113.77,87.952,111.113,87.952Z" transform="translate(-96.654 -82.424)" fill="#3bc9db"/>
</svg>
