<svg xmlns="http://www.w3.org/2000/svg" width="25.291" height="22.485" viewBox="0 0 25.291 22.485">
  <path id="REDDIT" d="M411.293,2973.961a2.781,2.781,0,0,0-1.817.769,13.5,13.5,0,0,0-7.311-2.336l1.232-5.923,4.064.854a1.9,1.9,0,1,0,1.685-2.091,1.878,1.878,0,0,0-1.435.929l-4.654-.929a.588.588,0,0,0-.7.448v.009l-1.4,6.589a13.6,13.6,0,0,0-7.405,2.336,2.771,2.771,0,0,0-3.795,4.04,2.7,2.7,0,0,0,.746.5,6.145,6.145,0,0,0,0,.835c0,4.252,4.956,7.712,11.068,7.712s11.068-3.455,11.068-7.712a6.175,6.175,0,0,0,0-.835,2.74,2.74,0,0,0-1.34-5.2Zm-16.113,4.573a1.9,1.9,0,1,1,1.9,1.9A1.906,1.906,0,0,1,395.18,2978.535Zm11.03,5.3v-.075a8.252,8.252,0,0,1-9.383,0,.513.513,0,0,1,.722-.722,7.26,7.26,0,0,0,7.92.038.531.531,0,1,1,.741.76Zm-.26-3.256h-.094l.014-.071a1.345,1.345,0,1,1,.08.071Z" transform="translate(-388.877 -2965.22)" fill="#3bc9db" fill-rule="evenodd"/>
</svg>
