<svg xmlns="http://www.w3.org/2000/svg" width="19.638" height="16.237" viewBox="0 0 19.638 16.237">
  <path id="TELEGRAM" d="M2107.945,1305.563c-.05.7-.452,3.163-.854,5.823l-1.255,7.882s-.1,1.155-.954,1.355-2.259-.7-2.51-.9c-.2-.151-3.765-2.41-5.071-3.514a.951.951,0,0,1,.05-1.606c1.807-1.656,3.967-3.715,5.272-5.021.6-.6,1.2-2.008-1.305-.3l-7.079,4.769a2.949,2.949,0,0,1-2.309.05c-1.506-.452-3.264-1.054-3.264-1.054s-1.2-.753.854-1.556h0l11.7-4.82c1.155-.5,5.071-2.108,5.071-2.108S2108.1,1303.856,2107.945,1305.563Z" transform="translate(-2088.316 -1304.416)" fill="#3bc9db" fill-rule="evenodd"/>
</svg>
