<svg id="Group_13" data-name="Group 13" xmlns="http://www.w3.org/2000/svg" width="24.367" height="19.966" viewBox="0 0 24.367 19.966">
  <g id="Group_12" data-name="Group 12">
    <path id="Path_30" data-name="Path 30" d="M13.648,25.422a10.985,10.985,0,0,0,5.247-.9,9.219,9.219,0,0,0,2.1-1.259,5.19,5.19,0,0,1-2.172-.538,4.957,4.957,0,0,1-2.4-2.683c-.11-.274-.11-.274.192-.256a3.968,3.968,0,0,0,1.843-.119,5.181,5.181,0,0,1-1.186-.456,5.063,5.063,0,0,1-2.719-4.28c-.018-.219.046-.246.246-.146a5.251,5.251,0,0,0,1.971.538c-.319-.292-.593-.529-.849-.776a5.177,5.177,0,0,1-.794-5.7c.128-.237.173-.237.347-.046a14.241,14.241,0,0,0,8.769,4.891c.356.064.748.073,1.113.146.246.036.274-.082.237-.265a5.027,5.027,0,0,1,8.413-4.517.572.572,0,0,0,.557.128,9.616,9.616,0,0,0,2.646-1.031.761.761,0,0,0,.219-.137,4.994,4.994,0,0,1-2.117,2.774,10.154,10.154,0,0,0,2.7-.712c.018.128-.073.192-.119.283a9.866,9.866,0,0,1-2.09,2.135.443.443,0,0,0-.183.411,14.616,14.616,0,0,1-3.468,9.819,13.553,13.553,0,0,1-8.4,4.7,14.251,14.251,0,0,1-10-1.944Z" transform="translate(-13.648 -7.656)" fill="#3bc9db" fill-rule="evenodd"/>
  </g>
</svg>
